<svg id="Laag_2" data-name="Laag 2" xmlns="http://www.w3.org/2000/svg" viewBox="0 0 317.34 87.97"><defs><style>.cls-1{fill:#432918;}.cls-2{fill:#cbbba0;}.cls-3{fill:#d1c3ab;}</style></defs><title>Logo</title><path class="cls-1" d="M406.69,102.23H392.82L389.5,123v10.75h0v7.58l-3.3,2.14L385.66,147h3.86v6.93h0.9v8.58h1.46l1.63-10.93h11.63l1.63,10.93h9.56Zm-12,41.16,4.48-30.48h0.17l4.48,30.48h-9.13Z" transform="translate(-212.34 -101.54)"/><path class="cls-1" d="M449.14,155.18v-9.3c0-6.28-1.55-10.76-6.29-12.74V133c4.22-2,6.2-5.94,6.2-12.14v-4.74c0-9.3-4.22-13.86-14-13.86h-14.3V162.5h9.48V138h3.27c4.3,0,6.2,2.07,6.2,7.67v9.47c0,4.9.34,5.85,0.86,7.4h9.64C449.22,160.26,449.14,158.11,449.14,155.18ZM439.58,123c0,4.82-2.15,6.37-5.68,6.37h-3.7V110.84h4.56c3.36,0,4.82,1.89,4.82,6.2V123Z" transform="translate(-212.34 -101.54)"/><path class="cls-1" d="M452.58,102.23v8.61h9.91V162.5H472V110.84h9.9v-8.61H452.58Z" transform="translate(-212.34 -101.54)"/><path class="cls-1" d="M502.35,129.18c-6.2-5.43-8.09-8.7-8.09-13.09s1.72-5.94,4.73-5.94,4.74,1.64,4.74,5.94v2.5h9v-1.9c0-9.64-4.73-15.15-14-15.15s-13.94,5.51-13.94,15.15c0,6.89,2.49,11.89,10.41,18.86,6.2,5.43,8.1,8.7,8.1,13.09s-1.9,5.85-4.91,5.85-4.91-1.55-4.91-5.85v-4.31h-8.95V148c0,9.64,4.82,15.15,14.12,15.15s14.12-5.51,14.12-15.15C512.77,141.15,510.27,136.15,502.35,129.18Z" transform="translate(-212.34 -101.54)"/><path class="cls-2" d="M359.25,111H254v51.57H243.77V111H212.34l5.66-8.95H359.25V111Z" transform="translate(-212.34 -101.54)"/><path class="cls-2" d="M306.07,143.83a19.46,19.46,0,0,1-1.56,7.81,19,19,0,0,1-4.28,6.22,20.42,20.42,0,0,1-14.2,5.67,19.91,19.91,0,0,1-7.78-1.52,20.15,20.15,0,0,1-6.35-4.18,19.4,19.4,0,0,1-5.83-14,18.8,18.8,0,0,1,1.59-7.68,20.24,20.24,0,0,1,4.31-6.29A19.95,19.95,0,0,1,286,124.13a20.15,20.15,0,0,1,7.81,1.52,20.38,20.38,0,0,1,6.39,4.15,19,19,0,0,1,4.28,6.26A19.54,19.54,0,0,1,306.07,143.83Zm-9.33,0a11.81,11.81,0,0,0-.84-4.47,11.68,11.68,0,0,0-2.29-3.63,10.53,10.53,0,0,0-3.39-2.43,10.21,10.21,0,0,0-8.27,0,10.54,10.54,0,0,0-3.39,2.43,12,12,0,0,0,0,16.21,10.55,10.55,0,0,0,3.39,2.43,10.21,10.21,0,0,0,8.27,0,10.54,10.54,0,0,0,3.39-2.43,11.66,11.66,0,0,0,2.29-3.63A11.8,11.8,0,0,0,296.74,143.83Z" transform="translate(-212.34 -101.54)"/><path class="cls-2" d="M346,162.57h-9.34V140.2a9.35,9.35,0,0,0-.62-3.53,7.25,7.25,0,0,0-1.66-2.53,6.69,6.69,0,0,0-2.38-1.49,8,8,0,0,0-2.77-.49,12.49,12.49,0,0,0-4.23.75,10.58,10.58,0,0,0-3.78,2.37v27.29h-9.33V125.1h9.33l0.06,2.79a10,10,0,0,1,2.07-1.56,16.25,16.25,0,0,1,2.56-1.2,16.92,16.92,0,0,1,2.72-.75,14.74,14.74,0,0,1,2.69-.26,16.65,16.65,0,0,1,5.48.91,13.18,13.18,0,0,1,4.67,2.79,13.49,13.49,0,0,1,3.27,4.86,18.46,18.46,0,0,1,1.23,7.07v22.82Z" transform="translate(-212.34 -101.54)"/><rect class="cls-2" x="141.82" y="0.51" width="10.18" height="60.51"/><rect class="cls-2" x="367.97" y="142.11" width="6.65" height="34.26" transform="translate(-0.3 428.99) rotate(-90)"/><path class="cls-2" d="M366.87,115.92V102.29H387.5v13.63h-3.3v-9.71h-4.93v9.58H376v-9.58h-5.68v9.71h-3.49Z" transform="translate(-212.34 -101.54)"/><path class="cls-2" d="M366.87,132.65V119H387.5v13.63h-3.3v-9.71h-4.93v9.58H376v-9.58h-5.68v9.71h-3.49Z" transform="translate(-212.34 -101.54)"/><path class="cls-2" d="M366.87,152.91V149l14.48-9.32H366.87v-3.92h20.65v4.49L374,149h13.48v3.92H366.87Z" transform="translate(-212.34 -101.54)"/><path class="cls-3" d="M527,102.44c0-.57-0.41-0.33-0.49-0.41C526.63,103,527.06,102.41,527,102.44Z" transform="translate(-212.34 -101.54)"/><polygon class="cls-3" points="316.17 10.27 316 10.11 316.47 11.49 316.17 10.27"/><path class="cls-3" d="M528.74,120.65c0.7-.84-0.14-3.2.05-4.78l0.16-.26-0.59-.69A35.71,35.71,0,0,1,528.74,120.65Z" transform="translate(-212.34 -101.54)"/><path class="cls-3" d="M527.16,125.33c0.28-.28.22,1,0.11-1.09a1.92,1.92,0,0,1-.07.2C527.19,124.63,527.19,124.89,527.16,125.33Z" transform="translate(-212.34 -101.54)"/><path class="cls-3" d="M527.19,124.44c0-.92-0.25.6,0,0h0Z" transform="translate(-212.34 -101.54)"/><path class="cls-3" d="M527.23,128.7l-0.2-1.22c-0.17.25-.25,1.32-0.36,0.92C526.76,129.64,526.93,129.39,527.23,128.7Z" transform="translate(-212.34 -101.54)"/><path class="cls-3" d="M527.7,129.87l-0.08-.63A0.6,0.6,0,0,0,527.7,129.87Z" transform="translate(-212.34 -101.54)"/><path class="cls-3" d="M527.45,127.89l0.17,1.34c0.12-.17.35-0.18-0.06-0.62C527.77,128.74,527.58,128.46,527.45,127.89Z" transform="translate(-212.34 -101.54)"/><path class="cls-3" d="M527.59,127.14c0.18-.68.29-1.56,0.51-0.33C528.05,124.47,527.55,124.81,527.59,127.14Z" transform="translate(-212.34 -101.54)"/><path class="cls-3" d="M529.48,121.1l0.2-.92-0.25-.8C529.56,119.78,529.26,121.16,529.48,121.1Z" transform="translate(-212.34 -101.54)"/><path class="cls-3" d="M526.35,136.19a2,2,0,0,0,.65-0.44l-0.1-.91A2.83,2.83,0,0,1,526.35,136.19Z" transform="translate(-212.34 -101.54)"/><path class="cls-3" d="M527,135.75l0.13,1.36C527.27,135.92,527.17,135.69,527,135.75Z" transform="translate(-212.34 -101.54)"/><path class="cls-3" d="M528.48,130.13L528.26,129,528,127.89l0.44,2.67Z" transform="translate(-212.34 -101.54)"/><polygon class="cls-3" points="313.4 39.68 313.16 38.89 313.5 40.29 313.4 39.68"/><path class="cls-3" d="M525.29,144.54c-0.19-.59-0.61.66-0.69,0.06a11,11,0,0,0,.08,2.43A7.07,7.07,0,0,1,525.29,144.54Z" transform="translate(-212.34 -101.54)"/><path class="cls-3" d="M524.77,148.24a10.21,10.21,0,0,0-.09-1.21A5.34,5.34,0,0,0,524.77,148.24Z" transform="translate(-212.34 -101.54)"/><path class="cls-3" d="M526.8,139.36a1.59,1.59,0,0,0-.56,1l0.49-.47Z" transform="translate(-212.34 -101.54)"/><path class="cls-3" d="M526.74,139.87l0,0c-0.08.57-.13,1-0.17,1.12Z" transform="translate(-212.34 -101.54)"/><path class="cls-3" d="M526.82,139.23l0,0.13S526.86,139.29,526.82,139.23Z" transform="translate(-212.34 -101.54)"/><path class="cls-3" d="M527.87,133.63c0.18,0.8.3,2.48,0.79,0.91C528.41,134,528.14,134.85,527.87,133.63Z" transform="translate(-212.34 -101.54)"/><path class="cls-3" d="M527.43,138.64l0.25-1.41c-0.11,0-.3.26-0.38-0.15Z" transform="translate(-212.34 -101.54)"/><polygon class="cls-3" points="315.13 37.81 315.08 37.1 314.98 37.62 315.13 37.81"/><path class="cls-3" d="M525.63,146a8.11,8.11,0,0,1-.17,2,19.76,19.76,0,0,0,.6-2.37C525.95,145.49,525.77,145.11,525.63,146Z" transform="translate(-212.34 -101.54)"/><path class="cls-3" d="M526.25,143v0.14C526.31,143.08,526.33,143,526.25,143Z" transform="translate(-212.34 -101.54)"/><polygon class="cls-3" points="311.26 53.6 311.37 53.52 311.3 53.47 311.26 53.6"/><path class="cls-3" d="M526.16,145.51a2.43,2.43,0,0,0,.07-1.33c0,0.46-.09.94-0.18,1.45C526.11,145.69,526.15,145.7,526.16,145.51Z" transform="translate(-212.34 -101.54)"/><path class="cls-3" d="M524.5,150.29c0.16-.28.31-0.61,0.47-1A1.92,1.92,0,0,0,524.5,150.29Z" transform="translate(-212.34 -101.54)"/><path class="cls-3" d="M526.11,143.34v-0.09C526,143.43,526,143.41,526.11,143.34Z" transform="translate(-212.34 -101.54)"/><path class="cls-3" d="M526.11,143.34a4.91,4.91,0,0,0,.12.84,7,7,0,0,0,0-1A0.89,0.89,0,0,1,526.11,143.34Z" transform="translate(-212.34 -101.54)"/><path class="cls-3" d="M525.48,158.17c-0.35-.25-0.13-1.89.66-3.12,0.12-1.42-1.4-.89-2.43,0,0.14,0.09.33,0.14,0.09,1.54,0.39-.38,1.41-2.82,1.41-1.58-0.34,1.86-.61,1.42-1.09,2.21,0.36-.28.34,0.33,0.32,1s-0.06,1.41.35,1.34l0.18-.82c0.09-.41.16-0.83,0.16-0.83S525.24,158.58,525.48,158.17Z" transform="translate(-212.34 -101.54)"/><path class="cls-3" d="M524.49,152.53l0.1-.57a6.6,6.6,0,0,1-1,1.75,1.72,1.72,0,0,0,.1,1.29l0.43-1.34c0.22-.67.4-1.35,0.4-1.35v0.2Z" transform="translate(-212.34 -101.54)"/><path class="cls-3" d="M525.2,149.46c0.32,0.53.18,1.93,0.83,1.21,0.35-1.67-.07-1.24,0-2.27-0.5,2.69-.05-0.81-0.74,1.05,0-.54.14-1,0.21-1.46a12.71,12.71,0,0,1-.5,1.33l0-.05h0c0.08-.1.12-0.13,0.06,0a0.24,0.24,0,0,1,0,.06,0.41,0.41,0,0,1,.13.16c-0.26.75-.14,0.1-0.13-0.16a0.27,0.27,0,0,0-.05,0h0l-0.19,1.35L524.59,152A14,14,0,0,0,525.2,149.46Z" transform="translate(-212.34 -101.54)"/><path class="cls-3" d="M529.46,136.1a0.11,0.11,0,0,1-.11.08C529.38,136.37,529.41,136.44,529.46,136.1Z" transform="translate(-212.34 -101.54)"/><path class="cls-3" d="M529.09,137.22a1.83,1.83,0,0,1-.09-1c0.19-.56.21,0,0.35,0-0.07-.41-0.18-1.41-0.5-0.19l0,0.2a5.44,5.44,0,0,1-1,2.27A3.54,3.54,0,0,0,529.09,137.22Z" transform="translate(-212.34 -101.54)"/><path class="cls-3" d="M527.43,143.54l-0.18,2.31,0.57-1.09-0.23,0C527.89,143.49,527.58,143.73,527.43,143.54Z" transform="translate(-212.34 -101.54)"/><path class="cls-3" d="M523.32,155.33l-0.35-.42s0.07,0.36.11,0.71l0.1,0.71Z" transform="translate(-212.34 -101.54)"/><polygon class="cls-3" points="310.08 56.55 309.75 56.31 309.7 57.11 310.08 56.55"/><path class="cls-3" d="M367.7,181.63l-0.63.28A4.65,4.65,0,0,0,367.7,181.63Z" transform="translate(-212.34 -101.54)"/><path class="cls-3" d="M372.48,180.46l0.07-.22C372.36,180.4,372.28,180.5,372.48,180.46Z" transform="translate(-212.34 -101.54)"/><path class="cls-3" d="M463.14,176.15c-0.9-.57-1.89-1.36-1.86-0.9l0.21,0.49A5.3,5.3,0,0,1,463.14,176.15Z" transform="translate(-212.34 -101.54)"/><path class="cls-3" d="M412.1,173.19l0.29,0.13,0.67-.43Z" transform="translate(-212.34 -101.54)"/><path class="cls-3" d="M411.42,175l-1.3-.25A8.06,8.06,0,0,0,411.42,175Z" transform="translate(-212.34 -101.54)"/><path class="cls-3" d="M341.15,188.09l-0.74.55C341.67,188.46,341.08,188.32,341.15,188.09Z" transform="translate(-212.34 -101.54)"/><path class="cls-3" d="M504.21,179.64c-0.78.18-1.39,0.28-1.91,0.45,0.48,0,.93,0,1.29-0.07A0.65,0.65,0,0,0,504.21,179.64Z" transform="translate(-212.34 -101.54)"/><path class="cls-3" d="M368.45,176.69c-0.39.18-.54,0.31-0.51,0.4C368.35,176.91,368.56,176.77,368.45,176.69Z" transform="translate(-212.34 -101.54)"/><path class="cls-3" d="M500.15,180.71c0.14,0,.28,0,0.42,0,0.53-.24,1.08-0.39,1.73-0.61A4,4,0,0,0,500.15,180.71Z" transform="translate(-212.34 -101.54)"/><path class="cls-3" d="M244,172.76l-0.19-.14S243.84,172.71,244,172.76Z" transform="translate(-212.34 -101.54)"/><path class="cls-3" d="M220.43,155.91c0.26,0.12.64,0.36,1,.56A6.5,6.5,0,0,0,220.43,155.91Z" transform="translate(-212.34 -101.54)"/><path class="cls-3" d="M517.05,168.26c0.31-.51,0-0.11,0,0h0Z" transform="translate(-212.34 -101.54)"/><path class="cls-3" d="M520.1,166.66a0.32,0.32,0,0,0,.05.32A0.42,0.42,0,0,1,520.1,166.66Z" transform="translate(-212.34 -101.54)"/><path class="cls-3" d="M494.41,184.08h-0.06C494.55,184.17,494.52,184.15,494.41,184.08Z" transform="translate(-212.34 -101.54)"/><path class="cls-3" d="M517.72,167.62a6.49,6.49,0,0,0-.54.56A6.74,6.74,0,0,0,517.72,167.62Z" transform="translate(-212.34 -101.54)"/><path class="cls-3" d="M517.48,167.61c0.13-.16.24-0.29,0.33-0.41S517.72,167.13,517.48,167.61Z" transform="translate(-212.34 -101.54)"/><path class="cls-3" d="M516.6,169a8.24,8.24,0,0,1,.58-0.78c-0.09.08-.14,0.11-0.13,0.07Z" transform="translate(-212.34 -101.54)"/><path class="cls-3" d="M295.13,186.4l-0.13-.06C294.33,186.43,294.62,186.44,295.13,186.4Z" transform="translate(-212.34 -101.54)"/><path class="cls-3" d="M445.89,177.58H446l-0.09,0Z" transform="translate(-212.34 -101.54)"/><path class="cls-3" d="M443.58,177.57a3,3,0,0,1,2.29,0l-0.57-1.35Z" transform="translate(-212.34 -101.54)"/><path class="cls-3" d="M356.21,184.71l1.68,0c-1.76,1.1-3.2,1.24-1.58,1.39-0.1-1.37,6.13-1.68,6-3.06h1.11c-0.3.06-.33,0.15-0.62,0.22,2.17,0.11,1.25-1.34,3.88-1.82,0.93-.13,1.6-0.1,1,0.22l1.92-.84c0.59-.12.5,0.14-0.08,0.26l1.51-.44c0.76-.23,1.52-0.42,1.52-0.42v0a16.69,16.69,0,0,1,1.75-1.11c0.82,0-.36.23-0.12,0.35l1.62-.72c0.77,0.18-.56.84-1.74,1.07,1.89,1,1.33-.71,4.91-0.64l-1.56.5c1.19,0.53,2.38,0,4.27.12-0.47-.16-3.85-0.45-2.09-1.16a4.75,4.75,0,0,0,2.17-.57c0.1,0.48,1,.14,2.26-0.09l0,0.64a5.14,5.14,0,0,0,1.85-1.11,2.3,2.3,0,0,1,2.27.62c2.36-.28-1.74-0.52,1-1.09a20.44,20.44,0,0,0,5.66-1.1c1.4,0.06-.2.42,0.31,0.54l1.17-.65c0.3,0,.22.14,0.18,0.23,1-.31,0-0.65,1.64-0.95,0.39-.73,3.43.79,5.4-0.15,0.51,0.15-.22.41-0.05,0.64a35.31,35.31,0,0,0,4.63-1.24l2,0.38c-1.44-.45.38-1.06,2-1.56-0.51-.22-1-0.41-1.25-0.5l1.29-.2c0.65-.11,1.29-0.18,1.29-0.18,0.31,0.11.05,0.33-.37,0.58l0.47-.14c0.92,0.26.44,0.62-.22,1l-0.93-.39c-0.64.4-1.22,0.85-1.09,1.22a3.24,3.24,0,0,1,.84-0.19c-0.16.11-.27,0.21-0.19,0.27a1.6,1.6,0,0,0,.77-0.25l0.58,0.72,0.14-.28,3.34,0.52c2.4-.64,4.53-1.74,8.38-1.79-1,.47-0.25.84-0.34,1.46-1-.72-3,0.11-4.92,0,1,0.09.79,0.38,0.52,0.48l1.77-.26,1.77-.21c-0.1.5,0.73,0.42,1.63,0.68-0.64-1.05,2.66-.51,4.11-0.7,0.06,0.34-.31.66-2,0.45,1.86,0.9,2.57-1,4.41-.2a1.15,1.15,0,0,0-.83.05c1-.21,3.43.25,2.83,0.49l-0.42,0c2.81,0.34,8.56,1,9.09.19A3.75,3.75,0,0,1,442,177s1.34-.55,2.7-1.07l2.73-1c-0.55.66,0.87,2.63-1.51,2.69a8.33,8.33,0,0,0,2.9.42c-0.44-.18-1-1.23-0.33-1.19a19,19,0,0,0,3.1,1.66c-0.65-.27.3-1.27,1.37-1-0.2.14-.11,1.13-0.52,1.18l1.44-.32,1.44-.3c-0.7.07-.29,0.91,0.24,1.34-0.23-.27,2.3.46,3,0.5l-1.08-.48c3,0.77,3.29-1,6.27-.26-0.41.15-1.19,1.21,0.29,1.67,0.81-.41,3.67-2,6.41-1.88L471,179.3l2.11,0.09a45.44,45.44,0,0,1-7.47,1.82c1.07,0.5.23,0.45,1.92,0.79,0.53,0.43-1,.25-1.52.16l3.87,1.07c0-.7,3.15,0,3.12-0.57l-4.42-.27c0-.7,2.88-1.31,5.64-0.58,0.65,0.42-.79,1.05-0.78,1.28a8,8,0,0,1,3,.36l-1.26.09c1.51,0.59,2.73-.32,4.49.69,0.64,0.17,1.8,1.23,2,.86-0.93-1-.68-3.33.12-3.76,0.21,0.1,3.24,1.34,3.93,1.8,1,0.75-1.84,1.18-1,1.82a1.81,1.81,0,0,1,1-.35c0.67,0.26-.37.53,1.16,0.66,0.34-.65,3.09.42,0.79-0.49,1.5,0,1.57.31,3.33,0.43-0.52-.48,1.66-1.39,3.09-1.62a0.62,0.62,0,0,0,.41.5,27.51,27.51,0,0,0,7.46-.66,8.06,8.06,0,0,0,.9,0c0.32,0,.55.05,0.31,0.3a4.94,4.94,0,0,1,1.48-.91c0.9-.06.47,0.18,0,0.39s-1.07.47-.32,0.58c0-.39,2-1.33,3-2.16-0.6-.32-2.66,1.13-3.82,1.75-0.13-.4.25-1,0.95-1.64a26.43,26.43,0,0,1,2.81-2.32c1.82-1.31,1.12,0,1.39-.33a7.31,7.31,0,0,0,1.92-1.48,5.49,5.49,0,0,0,.85-1.22,5.57,5.57,0,0,1,.75-1.08,6.58,6.58,0,0,1,1.51-1.26c1.34-.62.8,0.71,1.29,0.76-1.2,1.48-2.35,1.72-3.31,2.52l1.38-.79a5.59,5.59,0,0,1-1.9,1.7,13,13,0,0,0,3.68-2.74c1.54-1.48,3.09-3.31,4.27-4.56,0.22-.59.63-1.57,0.18-1.28l-0.27.46c-0.13.23-.28,0.46-0.28,0.46-0.91.54,0.65-2-.28-1a19.88,19.88,0,0,1,2.12-4.48l0.72,0a2.91,2.91,0,0,0-1.05,1.53c0.18-.82,2.2-2.28,1.85-3.47l-1,1.06,0.48-2.32a8.71,8.71,0,0,1,.81-2.41c-0.84.5-.09,0.4-1.21,1.24,0.6-.31.19,0.7-0.26,1.61s-0.85,1.75-.07,1.2a4.17,4.17,0,0,0-1.32,1.28,5.13,5.13,0,0,1-1.42,1.5c0.2,0.06.62-.28-0.19,0.87a1.19,1.19,0,0,1,0,.36l-0.07.07,0.06-.05c0,0.07,0,.08,0,0a2,2,0,0,1,.64-0.45c0,0.86-1.27,2.74-1.58,3.49-0.59.62,0-.43-0.42-0.19l-0.21.57c-0.1.29-.23,0.56-0.23,0.56-0.43-.19-2,1.21-0.94-0.45l-0.58.66c-0.28.34-.59,0.64-0.59,0.64a11.89,11.89,0,0,0-1.37,1.05,6.12,6.12,0,0,0-1.11,1.14c-0.68.45-1.29,1.7-1,1a13.06,13.06,0,0,1-1,.94l-0.71.63c-0.19.18-.33,0.28-0.33,0.28l-0.08-.08c-1.15.7-2.25,1.56-3.52,2.23a9.59,9.59,0,0,1-2,.84,7.21,7.21,0,0,1-2.24.32,9.3,9.3,0,0,1-1.37.45,7.76,7.76,0,0,1-1.88.26l-0.33-.35a10.18,10.18,0,0,1-2.23.06,3.49,3.49,0,0,0-1.76.12c-0.63-.54-2-0.65-3.58-0.74a30.15,30.15,0,0,1-4.28-.44l-0.16.49c-1.46-.27-2.9-0.38-4.78-0.55l0,0.46c-1.67,0-4-1.16-6.55-1.68a2,2,0,0,1,1.27.26c-2.79-1.65-6.53-.71-9.12-2a3.54,3.54,0,0,1-1.66-.37h0.18l-0.28-.07c-0.29-.14-0.58-0.29-0.91-0.44a4.81,4.81,0,0,0,.75.4,19.33,19.33,0,0,0-2.16-.27l-0.24-.54-0.19,0c-0.74-.33-0.67.1-0.33,0.54a6.09,6.09,0,0,0-1.1.07c-0.48-.89-2.12-0.17-2.83-1.14-0.61.29-4.05-.45-4.62,0.32,0-.11-0.23-0.21.2-0.14A6.41,6.41,0,0,0,450,175l-0.28-.67-2.07.5c-1.12-.55-1.58-0.83-0.34-1.13-2.94.31-2.34-.08-4.85,0.31l0.17-.38c-0.87-.1-2.31.25-2.79-0.14-1.85-1-9.56-1.14-14.51-2.08,0.91,1.22-2.3-.65-2.54.25-0.28-.29-1-0.47-0.15-0.68-2.57.2-3.84-.53-5.62,0.19-0.29-.28.56-0.39,0.3-0.56a1.76,1.76,0,0,1-1.08.05c-0.26-.17.38-0.22,0.79-0.33-2.62,0-2.89.83-3.09,1.62a3.09,3.09,0,0,0-2.93.22c-0.46-.25-1.23-0.51.39-0.64-0.91,0-5.59-.26-5.66.38a3.15,3.15,0,0,0-1.51.07c-2,.1-2.23.06-4.23,0.26l0.56,0.07c-0.74.82-1.65,0.29-3.26,0.49l0-.08c-3.75-.19-1.56.43-5.27,0.21l0.26,0.45c-0.21,1.06-3.3-.26-5.34.52l0.8,0.15c-1.08.53-3.43-.87-4.62-0.8-0.27,0,.37-0.21.72-0.33-3.15-.09-0.29.67-2.5,1.24-0.48-.25.37-1-1.15-0.71-0.82-.11-4.16,1.94-6.32,1.82,0.51,0.15,1,.3,0,0.73-1.55.45-4.5,0-5.7,1.22a0.37,0.37,0,0,1-.33-0.13c-1.15.51-3.8,1.33-4.39,2-1.51-1.3-7.19,2.68-7.53,1.18l-1.81.5-1.82.46,0.06-.17a7.76,7.76,0,0,0-3.85,1.52c-0.56,0-.2-0.21-0.17-0.3a14.83,14.83,0,0,0-6.57,1.74l-0.38-.45c-0.75.37-5.08,0-8.41,0.85a0.53,0.53,0,0,1,.35-0.26,20.42,20.42,0,0,1-6.2.22c-2-.11-3.67-0.07-4.36.86,0,0-.63.14-1.27,0.24l-1.27.21c3.31,0.17-.49.78,0.88,1.09-1.31.1-3.37-.57-1.77-0.65l0.25,0.09c0.59-.94-4.11-0.37-4-1-6.49-.08-12.75-1.16-18.73-2l0.6,0.82-2.1-.32c-0.53-.24-0.66-0.66.83-0.44a3.45,3.45,0,0,0-2.62.13c-2.87-.78,1.27-0.65.38-0.82l-1.22-.15,0.26,0.13a5.84,5.84,0,0,1-3,.1c-1.11-.33-0.5-0.54-0.94-0.64a0.92,0.92,0,0,0-.68-0.15l-2.6-.58,0.93,0.77c-1.22,0-2.46-.52-1.38.36a6.61,6.61,0,0,0-2.2-.93c-1-.32-2.18-0.62-3.35-0.9a32.85,32.85,0,0,1-5.1-1.36,17,17,0,0,1-5.23-1.08c0.45,0.26.56,1-1.1,0.38,1-1.1-2.9-1.5-4-2.83,1,1-4.75-1.47-3.17,0-1.35-.58.08-0.5-0.86-1.16a18,18,0,0,1-2.63-.73c-0.89-.34-1.78-0.75-2.7-1.17-1.83-.86-3.77-1.71-5.76-2.5-0.13.14,0.43,0.67-.52,0.55l-1.74-1.7c-0.81-.25-1.12.63-2.3-0.54,0.14,0.22.35,0.55-.19,0.38-7.32-4.19-15.9-6.78-22.56-12.43,0.84,0.86.15,0.51-.63,0.09,0.46,0.35-.23.37-0.25,0.63,0,0-.69-0.59-1.38-1.2l-1.37-1.21c-0.9.23-3.32-1.94-4-1.59l1,0.49c-1.69-.14,1,2.51.28,3.22,1.9,0.14,3.22,3.44,6.3,3.71,0.45,0.47-.61,0-0.43.37a4.93,4.93,0,0,1,2.92,1.26h-0.21c2,1,3.34,1.88,4.78,2.73s2.9,1.81,5.09,3.07l-0.12-.59a8.5,8.5,0,0,1,1.49,1.09c0.72-.06,0-0.39-0.66-0.74s-1.37-.75-0.69-0.85c0.85,1.53,6.88,3.25,7.3,4.67,1.52,0.69-.23-0.68,1.3,0l0.29,0.44,0.54-.18c1,0.48,1.34,1,1.28,1.29a7.37,7.37,0,0,0-1-.32c1.17,0.88,3.73,1.46,4.13,1.75l-1.41-.8,6.83,2.6a40.37,40.37,0,0,0,6.89,2.1l-0.24-.32c3.3,0.7,2.45,1.14,6,2h-0.14a9.07,9.07,0,0,1,2.7.5c-1,0,1.53,1,.28.92,3.62,0.58,1.83.15,4.36,0l0.44,0.5a5.41,5.41,0,0,1,2.78.12c-1.53-.08,1,0.85-0.74.82,3.57,1.69,5.75.54,7.23,2.06,1-.33.18-0.63-0.72-0.86s-1.91-.43-1.41-0.42c-0.73-.53,1.58-0.38,2.74-0.07s1.78,1.7,4.84,2.28c-0.3-.05-0.34,0-0.64-0.05,1.1,0.48,2.31,0,3.64.69,0.89-.48,1.82.34,2.17-0.41l-2.83-.28c1.63,0.06,3.25-.58,5.81.19a6,6,0,0,1-1.59.28c0.74,0.33,1.5,0,2.27.39-0.33.75-3.45-.25-5.25,0,0.77,0.49,3.32-.06,2.34.66,1.39-.92,3,0.55,5.22,0l-0.19.46a6.87,6.87,0,0,1,1.66-.12l-1.17.5c1.76-.35,3.23.8,4.9,0.67-3.42-.32-0.72-0.64-2.12-1.13,2.13-.09,2.7.25,3.34,0.66s1.35,0.88,3.72.93c-0.65,0-2.39-.46-1.37-0.6a13.28,13.28,0,0,1,2.61.68c3.15,0-.46-0.51.89-0.74,1,0.62,1.55-.14,2.92-0.31v0.48c3.57,0.34,1-1,4.17-.6l-1.36.66,1.68-.16-0.35.55a11.84,11.84,0,0,1,4.19-.15c-0.42-.32.22-0.89,1.79-1,1.09,0.24-.59.48,1.65,0.32a1.89,1.89,0,0,1-2,.32c-0.09.16-.49,0.32-0.59,0.48a14.34,14.34,0,0,0,3.76-.09,4,4,0,0,1-.89-0.07l1.61-.4,1.1-.28c0.3-.07.5-0.14,0.5-0.14,0.52,0.13.13,0.32-.26,0.49,0.66-.11,1.09-0.38,2.06-0.51-0.22.41-.12,0.81-1.49,1.13l3.07-.73c0.22,0.15,1.64.31,1.25,0.5,1.77,0.11,4.13-1.26,6.44-1.29a2.17,2.17,0,0,1,.81-0.32,20.27,20.27,0,0,0,6.5-1.15l0.78,0.21,0.78,0.19c1.91-.6-2.08-0.44,1.08-1.43,2.23-.74,1,0.39,1.83.4a17.57,17.57,0,0,1,2.11-1.09,7.09,7.09,0,0,1,3-.64A15.84,15.84,0,0,1,356.21,184.71Zm23.35-6.06c-0.43.19-1.27,0.68-1.66,0.47C378.29,178.47,378.75,178.65,379.56,178.65Zm36.1-4.49a2.32,2.32,0,0,1-1.49-.14A4.82,4.82,0,0,1,415.65,174.16Zm97.52-.6,0,0.05C512.32,174.14,512.63,174,513.18,173.56Zm1.55-1.33c0.08-.2,0-0.23-0.08-0.21a1.86,1.86,0,0,1-.69.88A1.12,1.12,0,0,0,514.73,172.23ZM288.9,182.1l0.39,0.2C288.33,182.27,288.62,182.18,288.9,182.1Z" transform="translate(-212.34 -101.54)"/><path class="cls-3" d="M411.51,174.79a0.42,0.42,0,0,1-.2-0.26C411.13,174.62,411.12,174.72,411.51,174.79Z" transform="translate(-212.34 -101.54)"/><path class="cls-3" d="M341.28,188h-0.08a0.2,0.2,0,0,0-.06.1Z" transform="translate(-212.34 -101.54)"/><path class="cls-3" d="M485.5,185.33a2.68,2.68,0,0,1-.83-0.37C484.62,185.07,484.81,185.2,485.5,185.33Z" transform="translate(-212.34 -101.54)"/><path class="cls-3" d="M520,162.77l-0.23.62c-0.11.31-.25,0.61-0.25,0.61a4,4,0,0,1,.67-1C520.07,163,519.81,163.14,520,162.77Z" transform="translate(-212.34 -101.54)"/><path class="cls-3" d="M526.81,152.75c0-.21.1-0.42,0.1-0.63h-0.23C526.47,153,526.49,153.59,526.81,152.75Z" transform="translate(-212.34 -101.54)"/><path class="cls-3" d="M522,162.34c0.42,0.07.63-.78,0.94-1.68a1.49,1.49,0,0,1-.07.16C522.43,160.34,522.2,161.34,522,162.34Z" transform="translate(-212.34 -101.54)"/><path class="cls-3" d="M523,160.46c0.1-.28.19-0.57,0.31-0.83C523.12,159.44,523.13,159.95,523,160.46Z" transform="translate(-212.34 -101.54)"/><path class="cls-3" d="M516.16,170.06c0.35-.28-0.25-0.53,0-0.62C516.08,168.73,514.95,172.11,516.16,170.06Z" transform="translate(-212.34 -101.54)"/><polygon class="cls-3" points="311.16 60.64 310.56 60.75 310.71 61.41 311.16 60.64"/><path class="cls-3" d="M519.57,168.75s0.25-.3.47-0.62l0.46-.63c-0.08,0,0-.22.07-0.44A7,7,0,0,0,519.57,168.75Z" transform="translate(-212.34 -101.54)"/><path class="cls-3" d="M520.56,167.07a3.83,3.83,0,0,0,.54-1.12C521,166.19,520.73,166.7,520.56,167.07Z" transform="translate(-212.34 -101.54)"/><path class="cls-3" d="M522.74,164.17l-0.29.37s-0.12.25-.26,0.48l-0.28.48,0.43-.66Z" transform="translate(-212.34 -101.54)"/><path class="cls-3" d="M507.7,180l-1.42.91c-0.08.23,0.38,0.11,0.91-.24C507.49,180.42,508,180.07,507.7,180Z" transform="translate(-212.34 -101.54)"/><path class="cls-3" d="M512.74,178.27a1.6,1.6,0,0,1-.83.18l0.34,0.53Z" transform="translate(-212.34 -101.54)"/><path class="cls-3" d="M508.62,181.28c-0.06.23-2.05,1.64-.06,0.55C508.65,181.61,510.06,180.54,508.62,181.28Z" transform="translate(-212.34 -101.54)"/><polygon class="cls-3" points="270.8 81.69 271.23 81.75 271.34 80.74 270.8 81.69"/><path class="cls-3" d="M460.56,180.91c1.91,0.65.59-.52,2.3,0.15,0.51-.14-1.4-0.55-0.88-0.65C460.75,180.41,460.16,180.14,460.56,180.91Z" transform="translate(-212.34 -101.54)"/><path class="cls-3" d="M462,180.42c0.2,0,.41,0,0.64,0A3.1,3.1,0,0,0,462,180.42Z" transform="translate(-212.34 -101.54)"/><polygon class="cls-3" points="4.33 51.48 3.34 50.64 3.87 51.36 4.33 51.48"/><path class="cls-3" d="M214.16,152.4l0.08-.71-1,.1A2.19,2.19,0,0,1,214.16,152.4Z" transform="translate(-212.34 -101.54)"/><path class="cls-3" d="M383.28,179.23l0.07-.17a1.83,1.83,0,0,0-1.11,0Z" transform="translate(-212.34 -101.54)"/><polygon class="cls-3" points="153.94 81.11 154.23 81.05 153.54 80.62 153.94 81.11"/><path class="cls-3" d="M352,187c0.6-.11,1.28-0.4,1.88-0.51C352.64,186.86,351.72,186.29,352,187Z" transform="translate(-212.34 -101.54)"/></svg>